<svg id="8cade447-38a9-4d25-91ab-2ed4b72195d5" data-name="Calque 9" xmlns="http://www.w3.org/2000/svg" viewBox="0 0 913.74 327.59"><defs><style>.\38 989c759-804b-48c9-804d-31a376397889{fill:#f8f7f7;opacity:0.9;}</style></defs><title>Sans titre - 1</title><g id="c9dcdad4-e3e0-4ab6-9fe1-b7ba3a60850e" data-name="Calque 5 - copie 4"><path class="8989c759-804b-48c9-804d-31a376397889" d="M289.32,172.16a17,17,0,0,0-9.69,2.64,20.93,20.93,0,0,0-6.37,6.8,29.39,29.39,0,0,0-3.48,9.18,49.76,49.76,0,0,0-1,9.94,47.68,47.68,0,0,0,1,9.69,29.93,29.93,0,0,0,3.31,8.93,19,19,0,0,0,6.21,6.54,17.05,17.05,0,0,0,9.52,2.55q8.67,0,13.34-4.84t5.87-13h23.29q-2.38,17.51-13.6,26.69T289,246.45a48.1,48.1,0,0,1-18.11-3.31,40.08,40.08,0,0,1-14-9.27,42.13,42.13,0,0,1-9-14.19,49.2,49.2,0,0,1-3.23-18.1,58.53,58.53,0,0,1,3-19,42.62,42.62,0,0,1,8.75-15.13,40,40,0,0,1,14.11-9.95,47.94,47.94,0,0,1,19-3.57,55.12,55.12,0,0,1,15,2,40.2,40.2,0,0,1,12.92,6.21,32.09,32.09,0,0,1,13.34,25.07H307.17Q304.79,172.16,289.32,172.16Z" transform="translate(-244.61 -122.86)"/><path class="8989c759-804b-48c9-804d-31a376397889" d="M345.42,181.26a40.2,40.2,0,0,1,23.46-24,50.19,50.19,0,0,1,18.7-3.31,50.87,50.87,0,0,1,18.79,3.31,40,40,0,0,1,23.54,24,54,54,0,0,1,3.23,19.13,53.29,53.29,0,0,1-3.23,19A41.29,41.29,0,0,1,420.73,234a40,40,0,0,1-14.37,9.27,52.11,52.11,0,0,1-18.79,3.23,51.41,51.41,0,0,1-18.7-3.23A40.1,40.1,0,0,1,354.6,234a41.23,41.23,0,0,1-9.18-14.53,53.23,53.23,0,0,1-3.23-19A53.94,53.94,0,0,1,345.42,181.26Zm21.93,29.41a27.37,27.37,0,0,0,3.48,9,18.54,18.54,0,0,0,6.54,6.38,20,20,0,0,0,10.2,2.38,20.44,20.44,0,0,0,10.29-2.38,18.36,18.36,0,0,0,6.63-6.37,27.43,27.43,0,0,0,3.49-9,51.47,51.47,0,0,0,1-10.28A52.78,52.78,0,0,0,408,190a26.53,26.53,0,0,0-3.49-9,19.37,19.37,0,0,0-6.63-6.37,19.91,19.91,0,0,0-10.29-2.46A18.57,18.57,0,0,0,370.83,181a26.47,26.47,0,0,0-3.48,9,52.71,52.71,0,0,0-1,10.37A51.4,51.4,0,0,0,367.35,210.67Z" transform="translate(-244.61 -122.86)"/><path class="8989c759-804b-48c9-804d-31a376397889" d="M471.73,156.35v12.24h0.51a27.7,27.7,0,0,1,11.9-11.14,34.44,34.44,0,0,1,15-3.48q9.69,0,15.9,2.64a23.59,23.59,0,0,1,9.77,7.31,28.33,28.33,0,0,1,5,11.39,71,71,0,0,1,1.44,14.88v54.06H507.09V194.6q0-10.88-3.4-16.23T491.62,173q-9.86,0-14.28,5.86t-4.42,19.3v46.07H448.78V156.35h22.95Z" transform="translate(-244.61 -122.86)"/><path class="8989c759-804b-48c9-804d-31a376397889" d="M572.54,156.35v12.24H573a27.7,27.7,0,0,1,11.9-11.14,34.44,34.44,0,0,1,15-3.48q9.69,0,15.9,2.64a23.59,23.59,0,0,1,9.77,7.31,28.33,28.33,0,0,1,5,11.39A71,71,0,0,1,632,190.18v54.06H607.9V194.6q0-10.88-3.4-16.23T592.43,173q-9.86,0-14.28,5.86t-4.42,19.3v46.07H549.59V156.35h22.95Z" transform="translate(-244.61 -122.86)"/><path class="8989c759-804b-48c9-804d-31a376397889" d="M676.23,223.16q5.44,5.27,15.64,5.27a21.51,21.51,0,0,0,12.58-3.65q5.27-3.65,6.46-7.74h21.25q-5.1,15.81-15.64,22.61t-25.5,6.8a50.19,50.19,0,0,1-18.7-3.31,38.86,38.86,0,0,1-14.11-9.44,42.43,42.43,0,0,1-8.92-14.62,53.46,53.46,0,0,1-3.14-18.7A51.25,51.25,0,0,1,649.37,182a42.49,42.49,0,0,1,23.38-24.48A45.52,45.52,0,0,1,691,154a41.79,41.79,0,0,1,19.55,4.33A39,39,0,0,1,724.26,170,47.91,47.91,0,0,1,732,186.61a62.13,62.13,0,0,1,1.7,19.55H670.28Q670.79,217.89,676.23,223.16Zm27.29-46.24q-4.34-4.76-13.18-4.76a21,21,0,0,0-9.6,2,18.31,18.31,0,0,0-6.12,4.85,17.75,17.75,0,0,0-3.23,6.12,27.54,27.54,0,0,0-1.1,5.78h39.27Q707.85,181.68,703.52,176.92Z" transform="translate(-244.61 -122.86)"/><path class="8989c759-804b-48c9-804d-31a376397889" d="M790,172.16a17,17,0,0,0-9.69,2.64,20.93,20.93,0,0,0-6.37,6.8,29.37,29.37,0,0,0-3.49,9.18,49.83,49.83,0,0,0-1,9.94,47.75,47.75,0,0,0,1,9.69,29.93,29.93,0,0,0,3.32,8.93,19,19,0,0,0,6.21,6.54,17.05,17.05,0,0,0,9.52,2.55q8.67,0,13.34-4.84t5.87-13H832q-2.38,17.51-13.6,26.69t-28.73,9.18a48.09,48.09,0,0,1-18.1-3.31,40.08,40.08,0,0,1-14-9.27,42.12,42.12,0,0,1-9-14.19,49.2,49.2,0,0,1-3.23-18.1,58.53,58.53,0,0,1,3-19A42.61,42.61,0,0,1,757,167.49a40.05,40.05,0,0,1,14.11-9.95,47.94,47.94,0,0,1,19-3.57,55.12,55.12,0,0,1,15,2,40.2,40.2,0,0,1,12.92,6.21,32.09,32.09,0,0,1,13.34,25.07H807.81Q805.43,172.16,790,172.16Z" transform="translate(-244.61 -122.86)"/><path class="8989c759-804b-48c9-804d-31a376397889" d="M893.83,156.35V172.5H876.15V216q0,6.12,2,8.16t8.16,2q2,0,3.91-.17a33,33,0,0,0,3.57-.51v18.7a57.71,57.71,0,0,1-6.8.68q-3.74.17-7.31,0.17a70.41,70.41,0,0,1-10.62-.77,25,25,0,0,1-8.84-3,15.72,15.72,0,0,1-6-6.29Q852,231,852,224.35V172.5H837.39V156.35H852V130h24.14v26.35h17.68Z" transform="translate(-244.61 -122.86)"/><path class="8989c759-804b-48c9-804d-31a376397889" d="M906.07,142.75V122.86h24.14v19.89H906.07Zm24.14,13.6v87.89H906.07V156.35h24.14Z" transform="translate(-244.61 -122.86)"/><path class="8989c759-804b-48c9-804d-31a376397889" d="M972.2,156.35v12.24h0.51a27.7,27.7,0,0,1,11.9-11.14,34.43,34.43,0,0,1,15-3.48q9.69,0,15.89,2.64a23.59,23.59,0,0,1,9.78,7.31,28.32,28.32,0,0,1,5,11.39,70.94,70.94,0,0,1,1.45,14.88v54.06h-24.14V194.6q0-10.88-3.4-16.23T992.09,173q-9.86,0-14.28,5.86t-4.42,19.3v46.07H949.25V156.35h23Z" transform="translate(-244.61 -122.86)"/><path class="8989c759-804b-48c9-804d-31a376397889" d="M1133.1,250.7a29.79,29.79,0,0,1-6.21,12.67q-4.76,5.87-13.77,9.94T1089,277.39a56.26,56.26,0,0,1-13.17-1.61,41.9,41.9,0,0,1-12.24-5,30.09,30.09,0,0,1-9.18-8.75,25.37,25.37,0,0,1-4.17-12.83h24q1.7,6.8,6.63,9.44a23.8,23.8,0,0,0,11.39,2.63q10.2,0,14.88-6.12t4.5-15.47V228.09h-0.34a23.9,23.9,0,0,1-11.13,10.28,36.07,36.07,0,0,1-15.22,3.32,38.38,38.38,0,0,1-17-3.49,32.22,32.22,0,0,1-11.73-9.52,39.69,39.69,0,0,1-6.71-14.11,66.77,66.77,0,0,1-2.12-17.08,54.75,54.75,0,0,1,2.46-16.4,42.85,42.85,0,0,1,7.22-13.94,34.92,34.92,0,0,1,11.82-9.6,35.48,35.48,0,0,1,16.24-3.57,34,34,0,0,1,15.21,3.23q6.54,3.23,11,10.88h0.34V156.35h23v82.28A59,59,0,0,1,1133.1,250.7ZM1100,221.46a18.85,18.85,0,0,0,6.46-5.44,24.09,24.09,0,0,0,3.82-7.73,32,32,0,0,0,1.28-9.09,49.88,49.88,0,0,0-1-10.29,25.73,25.73,0,0,0-3.4-8.58,17.65,17.65,0,0,0-6.29-6,19.86,19.86,0,0,0-9.86-2.21,17.7,17.7,0,0,0-8.75,2,18.4,18.4,0,0,0-6.12,5.52,23.29,23.29,0,0,0-3.57,8,39.4,39.4,0,0,0-1.11,9.44,47.86,47.86,0,0,0,.94,9.44,25.41,25.41,0,0,0,3.23,8.41,18.84,18.84,0,0,0,6,6.12,17.08,17.08,0,0,0,9.35,2.38A19.21,19.21,0,0,0,1100,221.46Z" transform="translate(-244.61 -122.86)"/><path class="8989c759-804b-48c9-804d-31a376397889" d="M289.32,376.16a17,17,0,0,0-9.69,2.64,20.93,20.93,0,0,0-6.37,6.8,29.39,29.39,0,0,0-3.48,9.18,49.76,49.76,0,0,0-1,9.94,47.68,47.68,0,0,0,1,9.69,29.93,29.93,0,0,0,3.31,8.93,19,19,0,0,0,6.21,6.54,17.05,17.05,0,0,0,9.52,2.55q8.67,0,13.34-4.84t5.87-13h23.29q-2.38,17.51-13.6,26.69T289,450.45a48.1,48.1,0,0,1-18.11-3.31,40.08,40.08,0,0,1-14-9.27,42.13,42.13,0,0,1-9-14.19,49.2,49.2,0,0,1-3.23-18.1,58.53,58.53,0,0,1,3-19,42.62,42.62,0,0,1,8.75-15.13,40,40,0,0,1,14.11-9.95,47.94,47.94,0,0,1,19-3.57,55.12,55.12,0,0,1,15,2,40.2,40.2,0,0,1,12.92,6.21,32.09,32.09,0,0,1,13.34,25.07H307.17Q304.79,376.16,289.32,376.16Z" transform="translate(-244.61 -122.86)"/><path class="8989c759-804b-48c9-804d-31a376397889" d="M345.42,385.26a40.2,40.2,0,0,1,23.46-24,50.19,50.19,0,0,1,18.7-3.31,50.87,50.87,0,0,1,18.79,3.31,40,40,0,0,1,23.54,24,54,54,0,0,1,3.23,19.13,53.29,53.29,0,0,1-3.23,19A41.29,41.29,0,0,1,420.73,438a40,40,0,0,1-14.37,9.27,52.11,52.11,0,0,1-18.79,3.23,51.41,51.41,0,0,1-18.7-3.23A40.1,40.1,0,0,1,354.6,438a41.23,41.23,0,0,1-9.18-14.53,53.23,53.23,0,0,1-3.23-19A53.94,53.94,0,0,1,345.42,385.26Zm21.93,29.41a27.37,27.37,0,0,0,3.48,9,18.54,18.54,0,0,0,6.54,6.38,20,20,0,0,0,10.2,2.38,20.44,20.44,0,0,0,10.29-2.38,18.36,18.36,0,0,0,6.63-6.37,27.43,27.43,0,0,0,3.49-9,51.47,51.47,0,0,0,1-10.28A52.78,52.78,0,0,0,408,394a26.53,26.53,0,0,0-3.49-9,19.37,19.37,0,0,0-6.63-6.37,19.91,19.91,0,0,0-10.29-2.46A18.57,18.57,0,0,0,370.83,385a26.47,26.47,0,0,0-3.48,9,52.71,52.71,0,0,0-1,10.37A51.4,51.4,0,0,0,367.35,414.67Z" transform="translate(-244.61 -122.86)"/><path class="8989c759-804b-48c9-804d-31a376397889" d="M472.24,360.35v11.9h0.34a34.36,34.36,0,0,1,11.47-10.54A31.1,31.1,0,0,1,499.44,358a35.42,35.42,0,0,1,15.22,3.23q6.88,3.23,10.45,11.39a37.45,37.45,0,0,1,10.63-10.2,28.26,28.26,0,0,1,15.9-4.42,47,47,0,0,1,12.92,1.7,26.05,26.05,0,0,1,10.2,5.44,25,25,0,0,1,6.63,9.77,39.66,39.66,0,0,1,2.38,14.54v58.82H559.62V398.43q0-4.42-.34-8.33a17.73,17.73,0,0,0-1.87-6.8,11.34,11.34,0,0,0-4.5-4.59,16.32,16.32,0,0,0-8.08-1.7,15.45,15.45,0,0,0-8.25,2,14.15,14.15,0,0,0-4.93,5.1,20.43,20.43,0,0,0-2.38,7.14,54.51,54.51,0,0,0-.59,8.08v49H504.54v-49.3q0-3.91-.17-7.74a21.75,21.75,0,0,0-1.45-7.05,10.87,10.87,0,0,0-4.25-5.19q-3-2-8.75-2a18.07,18.07,0,0,0-4.5.77,15,15,0,0,0-5.44,2.89,16.89,16.89,0,0,0-4.5,6.12,24.83,24.83,0,0,0-1.87,10.46v51H449.46V360.35h22.78Z" transform="translate(-244.61 -122.86)"/><path class="8989c759-804b-48c9-804d-31a376397889" d="M626.26,360.35v11.9h0.34a34.36,34.36,0,0,1,11.47-10.54A31.1,31.1,0,0,1,653.46,358a35.42,35.42,0,0,1,15.22,3.23q6.88,3.23,10.45,11.39a37.45,37.45,0,0,1,10.63-10.2,28.26,28.26,0,0,1,15.9-4.42,47,47,0,0,1,12.92,1.7,26.05,26.05,0,0,1,10.2,5.44,25,25,0,0,1,6.63,9.77,39.66,39.66,0,0,1,2.38,14.54v58.82H713.64V398.43q0-4.42-.34-8.33a17.73,17.73,0,0,0-1.87-6.8,11.34,11.34,0,0,0-4.5-4.59,16.32,16.32,0,0,0-8.08-1.7,15.45,15.45,0,0,0-8.25,2,14.15,14.15,0,0,0-4.93,5.1,20.43,20.43,0,0,0-2.38,7.14,54.51,54.51,0,0,0-.59,8.08v49H658.56v-49.3q0-3.91-.17-7.74a21.75,21.75,0,0,0-1.45-7.05,10.87,10.87,0,0,0-4.25-5.19q-3-2-8.75-2a18.07,18.07,0,0,0-4.5.77,15,15,0,0,0-5.44,2.89,16.89,16.89,0,0,0-4.5,6.12,24.83,24.83,0,0,0-1.87,10.46v51H603.48V360.35h22.78Z" transform="translate(-244.61 -122.86)"/><path class="8989c759-804b-48c9-804d-31a376397889" d="M816.32,448.24V436H815.8a27.16,27.16,0,0,1-11.9,11.05,35.14,35.14,0,0,1-15,3.4q-9.69,0-15.9-2.55a22.91,22.91,0,0,1-9.77-7.23,28.24,28.24,0,0,1-5-11.39,70.8,70.8,0,0,1-1.44-14.87V360.35H781V410q0,10.88,3.4,16.23t12.07,5.35q9.86,0,14.28-5.86t4.42-19.29V360.35h24.14v87.89H816.32Z" transform="translate(-244.61 -122.86)"/><path class="8989c759-804b-48c9-804d-31a376397889" d="M905.9,360.35V376.5H888.22V420q0,6.12,2,8.16t8.16,2q2,0,3.91-.17a33,33,0,0,0,3.57-.51v18.7a57.71,57.71,0,0,1-6.8.68q-3.74.17-7.31,0.17a70.41,70.41,0,0,1-10.62-.77,25,25,0,0,1-8.84-3,15.72,15.72,0,0,1-6-6.29q-2.21-4.08-2.21-10.71V376.5H849.46V360.35h14.62V334h24.14v26.35H905.9Z" transform="translate(-244.61 -122.86)"/><path class="8989c759-804b-48c9-804d-31a376397889" d="M943.3,427.16q5.44,5.27,15.64,5.27a21.52,21.52,0,0,0,12.58-3.65q5.27-3.65,6.46-7.74h21.25q-5.1,15.81-15.64,22.61t-25.5,6.8a50.19,50.19,0,0,1-18.7-3.31,38.86,38.86,0,0,1-14.11-9.44,42.42,42.42,0,0,1-8.92-14.62,53.46,53.46,0,0,1-3.15-18.7A51.25,51.25,0,0,1,916.44,386a42.49,42.49,0,0,1,23.38-24.48A45.51,45.51,0,0,1,958.09,358a41.79,41.79,0,0,1,19.55,4.33A39.06,39.06,0,0,1,991.33,374a47.89,47.89,0,0,1,7.73,16.66,62.11,62.11,0,0,1,1.7,19.55H937.35Q937.86,421.89,943.3,427.16Zm27.29-46.24q-4.33-4.76-13.17-4.76a21,21,0,0,0-9.61,2,18.31,18.31,0,0,0-6.12,4.85,17.75,17.75,0,0,0-3.23,6.12,27.61,27.61,0,0,0-1.11,5.78h39.27Q974.92,385.68,970.59,380.92Z" transform="translate(-244.61 -122.86)"/><path class="8989c759-804b-48c9-804d-31a376397889" d="M1038,360.35v16.32h0.34a29.6,29.6,0,0,1,4.59-7.56,30.09,30.09,0,0,1,6.63-6,32.5,32.5,0,0,1,8-3.83,28.85,28.85,0,0,1,8.84-1.36,18.87,18.87,0,0,1,5.27.85v22.44q-1.7-.34-4.08-0.6a43.18,43.18,0,0,0-4.59-.25,25.75,25.75,0,0,0-11.22,2.21,19.44,19.44,0,0,0-7.39,6,24.17,24.17,0,0,0-4,8.92,48.55,48.55,0,0,0-1.19,11.05v39.61H1015V360.35h23Z" transform="translate(-244.61 -122.86)"/><path class="8989c759-804b-48c9-804d-31a376397889" d="M1101.48,426.4a14.09,14.09,0,0,0,4.17,4.59,17.82,17.82,0,0,0,5.86,2.63,27.53,27.53,0,0,0,6.89.85,25.7,25.7,0,0,0,5.35-.6,18.18,18.18,0,0,0,5.1-1.87,11.58,11.58,0,0,0,3.82-3.4,8.93,8.93,0,0,0,1.53-5.36q0-5.44-7.22-8.16a144.78,144.78,0,0,0-20.15-5.44q-5.27-1.19-10.29-2.81a35,35,0,0,1-8.92-4.25,20.62,20.62,0,0,1-6.29-6.63,18.77,18.77,0,0,1-2.38-9.77q0-8.5,3.32-13.94a24.44,24.44,0,0,1,8.75-8.58,38.39,38.39,0,0,1,12.24-4.42,75.47,75.47,0,0,1,13.94-1.27,69.72,69.72,0,0,1,13.86,1.36,36.73,36.73,0,0,1,12,4.59,27.54,27.54,0,0,1,8.75,8.58A28.86,28.86,0,0,1,1156,386h-23q-0.51-7-5.27-9.43a24.12,24.12,0,0,0-11.22-2.47,41.66,41.66,0,0,0-4.42.25,14.75,14.75,0,0,0-4.33,1.11,8.94,8.94,0,0,0-3.32,2.46,6.51,6.51,0,0,0-1.36,4.33,6.61,6.61,0,0,0,2.38,5.27,18.33,18.33,0,0,0,6.2,3.31,77.41,77.41,0,0,0,8.76,2.29q4.93,1,10,2.21a103,103,0,0,1,10.29,2.89,33.91,33.91,0,0,1,8.92,4.5,21.81,21.81,0,0,1,6.29,7,20.47,20.47,0,0,1,2.38,10.28q0,8.67-3.48,14.54a27.89,27.89,0,0,1-9.1,9.44,37.25,37.25,0,0,1-12.83,5,75,75,0,0,1-14.7,1.44,72.82,72.82,0,0,1-15-1.53,39.48,39.48,0,0,1-13-5.1,29.14,29.14,0,0,1-9.35-9.44q-3.66-5.87-4-14.71h23A13.21,13.21,0,0,0,1101.48,426.4Z" transform="translate(-244.61 -122.86)"/></g></svg>