<svg id="470d10eb-08fa-4821-93f5-edd1360b1d6d" data-name="Calque 1" xmlns="http://www.w3.org/2000/svg" xmlns:xlink="http://www.w3.org/1999/xlink" viewBox="0 0 795.61 166.67"><defs><style>.c6082475-2efb-4892-b086-effeb4467148{fill:none;}.\36 7e2213f-a7f4-4467-b50a-07b14a31fe82{clip-path:url(#c24e3269-5523-405c-bf67-33cbd0233b3b);}.\34 e200d0f-efc4-4586-9ca4-5d711924159b{fill:#1d1d1b;}</style><clipPath id="c24e3269-5523-405c-bf67-33cbd0233b3b" transform="translate(-23.3 -13.9)"><rect class="c6082475-2efb-4892-b086-effeb4467148" x="23.3" y="13.9" width="795.61" height="166.67"/></clipPath></defs><title>urbanoid blanc</title><g class="67e2213f-a7f4-4467-b50a-07b14a31fe82"><path class="4e200d0f-efc4-4586-9ca4-5d711924159b" d="M740.48,113.18a35.87,35.87,0,0,1,5-12.05,27.87,27.87,0,0,1,9-8.64,25.91,25.91,0,0,1,13.56-3.31q13.26,0,21,9.64t7.73,26.92a52.66,52.66,0,0,1-1.71,13.36,38.17,38.17,0,0,1-5.22,11.75,27.24,27.24,0,0,1-9,8.44,25.71,25.71,0,0,1-13.16,3.21,26.07,26.07,0,0,1-12.85-3,26.39,26.39,0,0,1-8.94-8A35.67,35.67,0,0,1,740.68,140,50.58,50.58,0,0,1,739,126.94a62.8,62.8,0,0,1,1.51-13.76m78.44-78.84H796v53h-0.4A28.46,28.46,0,0,0,789.09,80a38.11,38.11,0,0,0-8.54-5.12A43.46,43.46,0,0,0,770.91,72a55.44,55.44,0,0,0-9.84-.9,46,46,0,0,0-16.57,3.11A39.25,39.25,0,0,0,730,84a48.67,48.67,0,0,0-10.14,16.87q-3.82,10.24-3.82,24.3a76.18,76.18,0,0,0,3,21.79,50.26,50.26,0,0,0,9,17.58,42.63,42.63,0,0,0,15.17,11.75q9.14,4.32,21.39,4.32a45.59,45.59,0,0,0,18.68-3.92,27.21,27.21,0,0,0,13.46-13h0.4v14.06h21.69V34.34ZM696.19,73.91h-22.9V177.76h22.9V73.91ZM590.74,159.28a27.88,27.88,0,0,1-9.24-8.44,36.76,36.76,0,0,1-5.32-11.75,52.71,52.71,0,0,1,0-26.61,35.52,35.52,0,0,1,5.32-11.75,28.38,28.38,0,0,1,9.24-8.34,29,29,0,0,1,26.51,0,28.41,28.41,0,0,1,9.24,8.34,35.57,35.57,0,0,1,5.32,11.75,52.71,52.71,0,0,1,0,26.61,36.82,36.82,0,0,1-5.32,11.75,27.9,27.9,0,0,1-9.24,8.44,28.95,28.95,0,0,1-26.51,0m35.45,17.17a47.33,47.33,0,0,0,16.47-11.35,48.53,48.53,0,0,0,10.24-17.27,66.52,66.52,0,0,0,3.52-22.1,65.9,65.9,0,0,0-3.52-21.89,48.56,48.56,0,0,0-10.24-17.27,47.38,47.38,0,0,0-16.47-11.35,61.88,61.88,0,0,0-44.39,0,47.32,47.32,0,0,0-16.47,11.35,48.48,48.48,0,0,0-10.24,17.27,65.84,65.84,0,0,0-3.52,21.89,66.46,66.46,0,0,0,3.52,22.1,48.46,48.46,0,0,0,10.24,17.27,47.27,47.27,0,0,0,16.47,11.35,61.88,61.88,0,0,0,44.39,0m-182.28,1.31h22.9V116.49a31.17,31.17,0,0,1,1.81-10.65,27.4,27.4,0,0,1,5-8.74,22.63,22.63,0,0,1,7.83-5.83,24.87,24.87,0,0,1,10.45-2.11q10.24,0,15.07,5.52t5.22,17.78v65.28h22.9V106.45q0-17.67-9.84-26.51T498.34,71.1A36.4,36.4,0,0,0,479.66,76,38.42,38.42,0,0,0,466,89.58l-0.4-.4V73.91H443.91V177.76Zm-47.61-35a15.51,15.51,0,0,1-2.61,9.14,21.92,21.92,0,0,1-6.53,6.13,27.34,27.34,0,0,1-8.34,3.41,37.13,37.13,0,0,1-8.23,1,42.44,42.44,0,0,1-6.73-.6,24.64,24.64,0,0,1-6.83-2.11,16,16,0,0,1-5.32-4.12,9.59,9.59,0,0,1-2.21-6.43A17.18,17.18,0,0,1,351,141.7a13.24,13.24,0,0,1,4.12-5,21.18,21.18,0,0,1,6-3,49.28,49.28,0,0,1,7-1.71q7.63-1.4,15.26-2.11a27.76,27.76,0,0,0,12.86-4.12v17.07Zm22.9-41.58a25.63,25.63,0,0,0-3.62-14A29,29,0,0,0,406,77.93a42.89,42.89,0,0,0-13.36-5.22,71.17,71.17,0,0,0-15.07-1.61,88,88,0,0,0-16.87,1.61A44,44,0,0,0,346,78.33,33.31,33.31,0,0,0,335.24,89q-4.22,6.63-4.82,16.67h22.9q0.8-8.44,7-12.45t15.87-4a55.84,55.84,0,0,1,7.23.5,22.65,22.65,0,0,1,6.93,2A14.19,14.19,0,0,1,395.6,96a11.74,11.74,0,0,1,2.11,7.23q0,5-2.51,7.53a15.24,15.24,0,0,1-6.83,3.72,55.49,55.49,0,0,1-9.94,1.71,117.52,117.52,0,0,0-11.85,1.71q-7.23.8-14.36,2.31a41.75,41.75,0,0,0-12.86,4.92,26,26,0,0,0-9.24,9.44q-3.52,6-3.51,15.67a29.06,29.06,0,0,0,2.91,13.36,26.9,26.9,0,0,0,7.83,9.44,35.22,35.22,0,0,0,11.35,5.62,47.07,47.07,0,0,0,13.46,1.91,66.08,66.08,0,0,0,19.18-3,40.52,40.52,0,0,0,16.77-9.64q1.4,7,6,9.84a22.07,22.07,0,0,0,11.65,2.81c0.94,0,2.07-.07,3.41-0.2s2.68-.34,4-0.6,2.64-.57,3.92-0.9,2.31-.64,3.11-0.9V162.09a14.88,14.88,0,0,1-3.21.4h-2.41q-3.22,0-4.32-1.81t-1.11-6V101.23ZM289.34,139.29a33.82,33.82,0,0,1-5,11.65,28,28,0,0,1-8.94,8.34,25.57,25.57,0,0,1-13.26,3.21,26,26,0,0,1-12.35-2.81,28.55,28.55,0,0,1-9.14-7.63,32.7,32.7,0,0,1-5.72-11.55A53.1,53.1,0,0,1,233,125.93q0-16.67,7.33-26.72t21.79-10a24.57,24.57,0,0,1,12.45,3.11,28,28,0,0,1,9,8.24A37.11,37.11,0,0,1,289,112.27a51.68,51.68,0,0,1,1.81,13.66,59.18,59.18,0,0,1-1.51,13.36m-78.44,38.47H232.6V163.49H233a25.32,25.32,0,0,0,6.53,8.44,34.65,34.65,0,0,0,8.74,5.22,39.94,39.94,0,0,0,10.14,2.71,80.52,80.52,0,0,0,10.55.7q11.45,0,19.88-4.52a41.2,41.2,0,0,0,14-12.05A52.78,52.78,0,0,0,311,146.62a76,76,0,0,0,2.71-20.29,74.47,74.47,0,0,0-3-21.49,51.48,51.48,0,0,0-9-17.58,42.19,42.19,0,0,0-15.17-11.85q-9.14-4.32-21.39-4.32a37.63,37.63,0,0,0-8.94,1.1,39.47,39.47,0,0,0-8.64,3.21A36.36,36.36,0,0,0,240,80.54a31.45,31.45,0,0,0-5.83,6.83h-0.4v-53h-22.9V177.76Zm-72.31,0h22.9V128.34a48.22,48.22,0,0,1,2.21-15.27,33.44,33.44,0,0,1,6-11.15,25.13,25.13,0,0,1,8.94-6.83,26.36,26.36,0,0,1,10.95-2.31,41.12,41.12,0,0,1,4.92.3q2.51,0.3,4.92.7V71.7l-3.11-.4a50,50,0,0,0-5.52-.2,27.39,27.39,0,0,0-10.24,2,35.51,35.51,0,0,0-9.14,5.32,38.11,38.11,0,0,0-7,7.33A23.13,23.13,0,0,0,160.49,94h-0.4V73.91H138.6V177.76ZM114.5,73.91H91.6v60.26a46.32,46.32,0,0,1-1.31,11.25A22.72,22.72,0,0,1,86,154.36a21.28,21.28,0,0,1-7.83,5.92,28.89,28.89,0,0,1-12.05,2.21q-9.44,0-14.66-5.62T46.2,137.58V73.91H23.3v65.88q0,20.49,9.14,30.63t29.63,10.14a34.11,34.11,0,0,0,17-4.72A31.46,31.46,0,0,0,91.6,163.29H92v14.46h22.5V73.91Z" transform="translate(-23.3 -13.9)"/><path class="4e200d0f-efc4-4586-9ca4-5d711924159b" d="M685.8,61.72a13,13,0,1,0-13-13,13,13,0,0,0,13,13" transform="translate(-23.3 -13.9)"/><path class="4e200d0f-efc4-4586-9ca4-5d711924159b" d="M715.35,39.64a12.87,12.87,0,1,0-12.87-12.87,12.87,12.87,0,0,0,12.87,12.87" transform="translate(-23.3 -13.9)"/></g></svg>